# 3ds Max Wavefront OBJ Exporter v0.97b - (c)2007 guruware
# File Created: 13.06.2014 23:22:20

#
# object Amiga
#

v  0.367111146450 -0.256136566401 0.065730214119
v  0.367111057043 -0.256136536598 0.560302257538
v  0.367111235857 -0.188255906105 0.048858251423
v  0.367111057043 -0.239342704415 0.570784151554
v  -0.371282637119 -0.256136655807 0.065730132163
v  -0.371282726526 -0.256136626005 0.560302197933
v  -0.371282607317 -0.188256025314 0.048858195543
v  -0.371282726526 -0.239342823625 0.570784091949
v  0.367111116648 -0.173596024513 0.297429442406
v  0.367111116648 -0.256136566401 0.297429412603
v  -0.371282696724 -0.256136655807 0.297429352999
v  -0.371282696724 -0.173596143723 0.297429382801
v  0.367111027241 -0.188226461411 0.271361976862
v  -0.371282726526 -0.256136685610 0.271349698305
v  0.367111027241 -0.256136566401 0.271349787712
v  -0.371282726526 -0.188226565719 0.271361887455
v  0.324533671141 -0.223810151219 0.527767300606
v  0.324533700943 -0.177375316620 0.338172584772
v  -0.337310731411 -0.177375406027 0.338172495365
v  -0.337310880423 -0.223810240626 0.527767241001
v  -0.210239678621 -0.147610381246 -0.024548809975
v  0.210472464561 -0.147610336542 -0.024548809975
v  0.210472449660 0.194986894727 -0.054136916995
v  -0.210239693522 0.194986820221 -0.054136879742
v  -0.263993978500 -0.210156679153 -0.000176229514
v  0.264226764441 -0.210156604648 -0.000176229514
v  -0.263993948698 -0.243230625987 -0.564113020897
v  0.264226794243 -0.243230566382 -0.564112961292
v  -0.263994038105 0.255081772804 -0.040356092155
v  0.264226734638 0.255081862211 -0.040356133133
v  -0.263994008303 0.140246361494 -0.564113020897
v  0.264226734638 0.140246436000 -0.564112961292
v  -0.263993978500 -0.243230611086 -0.251810997725
v  0.264226764441 -0.243230551481 -0.251810997725
v  0.264226704836 0.242178574204 -0.251568794250
v  -0.263994038105 0.242178499699 -0.251568794250
v  0.471247494221 -0.256588637829 0.345766782761
v  0.591567456722 -0.256588637829 0.345766782761
v  0.471247494221 -0.256588667631 0.166754230857
v  0.591567456722 -0.256588667631 0.166754230857
v  0.471247494221 -0.230685159564 0.345766782761
v  0.591567456722 -0.230685159564 0.345766782761
v  0.471247494221 -0.228338748217 0.166754230857
v  0.591567456722 -0.228338748217 0.166754230857
v  0.575516283512 -0.195718333125 0.215673848987
v  0.575516223907 -0.218690693378 0.171947553754
v  0.487298697233 -0.218690693378 0.171947538853
v  0.487298697233 -0.195718333125 0.215673863888
v  0.543743968010 -0.218690693378 0.171947553754
v  0.519070982933 -0.218690693378 0.171947553754
v  0.519070982933 -0.195718333125 0.215673863888
v  0.543743968010 -0.195718333125 0.215673863888
v  0.494724541903 -0.208772122860 0.313297539949
v  0.568090379238 -0.208772122860 0.313297539949
v  0.568090379238 -0.202396348119 0.212665036321
v  0.494724541903 -0.202396348119 0.212665036321
v  0.375446498394 -0.238200992346 0.113194875419
v  0.375446557999 -0.221306815743 0.112916983664
v  0.375446438789 -0.221299454570 0.159268260002
v  0.375446438789 -0.238200962543 0.159265547991
# 60 vertices

vn 1.000000000000 -0.000000893488 0.000000874797
vn 1.000000000000 -0.000001084044 0.000000937729
vn 1.000000000000 -0.000000094305 -0.000001674948
vn 1.000000000000 0.000000000008 -0.000001424198
vn -1.000000000000 0.000000252107 -0.000000518050
vn -1.000000000000 0.000000000019 0.000000353935
vn -1.000000000000 0.000000026607 0.000000456060
vn -1.000000000000 0.000000305865 -0.000000535804
vn 0.000000144753 -1.000000000000 0.000000031181
vn 0.000000141717 -1.000000000000 0.000000529771
vn 0.000000154466 -1.000000000000 -0.000000076168
vn 0.000000121083 -1.000000000000 0.000000043711
vn 0.000000016639 -0.529481112957 0.848321676254
vn 0.000000017003 -0.529481112957 0.848321676254
vn -0.000000004002 -0.529481828213 0.848321259022
vn -0.000000004367 -0.529481768608 0.848321259022
vn -0.000000148835 0.990533888340 -0.137268304825
vn -0.000000129291 0.990533888340 -0.137268409133
vn -0.000000175844 0.972272932529 0.233848989010
vn -0.000000175844 0.972272932529 0.233848989010
vn 0.000000135447 -0.241213947535 -0.970471978188
vn 0.000000136922 -0.241213962436 -0.970471978188
vn 0.000000113860 -0.241213724017 -0.970472037792
vn 0.000000112385 -0.241213709116 -0.970472037792
vn 1.000000000000 -0.000000107821 0.000000224673
vn 1.000000000000 -0.000000141522 0.000000226743
vn 1.000000000000 -0.000000002764 -0.000001604921
vn 1.000000000000 0.000000000194 -0.000001395978
vn -1.000000000000 0.000000050710 -0.000000097449
vn -1.000000000000 0.000000059166 -0.000000094794
vn -1.000000000000 0.000000001621 0.000000443170
vn -1.000000000000 -0.000000000000 0.000000514686
vn 0.000000121083 -1.000000000000 0.000000043711
vn 0.000000121083 -1.000000000000 0.000000043711
vn 0.000000121083 -1.000000000000 0.000000615083
vn 0.000000140810 -1.000000000000 0.000000056553
vn -0.000000124839 0.967464447021 -0.253006964922
vn -0.000000114521 0.967464625835 -0.253006279469
vn -0.000000129291 0.990533888340 -0.137268409133
vn -0.000000148835 0.990533888340 -0.137268304825
vn 1.000000000000 0.000000000194 -0.000001395978
vn 1.000000000000 -0.000000002764 -0.000001604921
vn 1.000000000000 0.000000000008 -0.000001424198
vn 1.000000000000 -0.000000094305 -0.000001674948
vn -1.000000000000 0.000000000019 0.000000353935
vn -1.000000000000 -0.000000000000 0.000000514686
vn -1.000000000000 0.000000001621 0.000000443170
vn -1.000000000000 0.000000026607 0.000000456060
vn 0.000000140810 -1.000000000000 0.000000056553
vn 0.000000121083 -1.000000000000 0.000000615083
vn 0.000000141717 -1.000000000000 0.000000529771
vn 0.000000144753 -1.000000000000 0.000000031181
vn -0.000000145009 1.000000000000 -0.000132322719
vn -0.000000161434 1.000000000000 -0.000132377230
vn -0.000000114521 0.967464625835 -0.253006279469
vn -0.000000124839 0.967464447021 -0.253006964922
vn -0.000000154589 0.971293151379 0.237885549664
vn -0.000000163345 0.971293210983 0.237885504961
vn -0.000000161389 0.971293210983 0.237885519862
vn -0.000000152633 0.971293151379 0.237885549664
vn 0.000000037156 0.086043782532 0.996291339397
vn -0.000000009143 0.086043819785 0.996291339397
vn 0.000000026683 0.086043782532 0.996291339397
vn 0.000000072981 0.086043737829 0.996291339397
vn 0.000000122618 -0.997865855694 0.065297096968
vn 0.000000112600 -0.997865855694 0.065297126770
vn 0.000000119854 -0.991472601891 0.130315467715
vn 0.000000139848 -0.991472601891 0.130315437913
vn -0.000000148766 0.998139142990 -0.060977723449
vn -0.000000138562 0.982354283333 -0.187029719353
vn -0.000000139732 0.982354283333 -0.187029704452
vn -0.000000173676 0.998139142990 -0.060977660120
vn 0.000000028224 0.086043767631 0.996291339397
vn -0.000000012137 0.086043812335 0.996291339397
vn 0.000000022365 0.086043775082 0.996291339397
vn 0.000000062726 0.086043722928 0.996291339397
vn 1.000000000000 0.000000104239 -0.000000049539
vn 1.000000000000 0.000000132409 0.000000032972
vn 1.000000000000 0.000000095054 -0.000000034978
vn 1.000000000000 0.000000051600 -0.000000144253
vn 0.000000112840 -0.000000043711 -1.000000000000
vn 0.000000112840 -0.000000043711 -1.000000000000
vn 0.000000112840 -0.000000043711 -1.000000000000
vn 0.000000112840 -0.000000043711 -1.000000000000
vn -1.000000000000 -0.000000132409 -0.000000032972
vn -1.000000000000 -0.000000124594 -0.000000018173
vn -1.000000000000 -0.000000134603 -0.000000069851
vn -1.000000000000 -0.000000155432 -0.000000095428
vn 0.000000112840 -1.000000000000 0.000000043711
vn 0.000000112840 -1.000000000000 0.000000043711
vn 0.000000112600 -0.997865855694 0.065297126770
vn 0.000000122618 -0.997865855694 0.065297096968
vn -0.000000121699 0.950715899467 -0.310063362122
vn -0.000000099111 0.950715899467 -0.310063332319
vn -0.000000139732 0.982354283333 -0.187029704452
vn -0.000000138562 0.982354283333 -0.187029719353
vn 1.000000000000 0.000000132409 0.000000032972
vn 1.000000000000 0.000000155432 0.000000095428
vn 1.000000000000 0.000000134603 0.000000069851
vn 1.000000000000 0.000000095054 -0.000000034978
vn -1.000000000000 -0.000000124011 0.000000013962
vn -1.000000000000 -0.000000127444 0.000000007786
vn -1.000000000000 -0.000000124594 -0.000000018173
vn -1.000000000000 -0.000000132409 -0.000000032972
vn 0.000000000000 -1.000000000000 0.000000043711
vn 0.000000000000 -1.000000000000 0.000000043711
vn 0.000000000000 -1.000000000000 0.000000043711
vn 0.000000000000 -1.000000000000 0.000000043711
vn 0.000000000000 0.997998952866 0.063230171800
vn 0.000000000000 0.997998952866 0.063230171800
vn 0.000000000000 0.997998952866 0.063230171800
vn 0.000000000000 0.997998952866 0.063230171800
vn 0.000000000000 0.000000043711 1.000000000000
vn 0.000000000000 0.000000043711 1.000000000000
vn 0.000000000000 0.000000043711 1.000000000000
vn 0.000000000000 0.000000043711 1.000000000000
vn 1.000000000000 0.000000000000 0.000000000000
vn 1.000000000000 0.000000000000 0.000000000000
vn 1.000000000000 0.000000000000 0.000000000000
vn 1.000000000000 0.000000000000 0.000000000000
vn 0.000000000000 -0.000000043711 -1.000000000000
vn 0.000000000000 -0.000000043711 -1.000000000000
vn 0.000000000000 -0.000000043711 -1.000000000000
vn 0.000000000000 -0.000000043711 -1.000000000000
vn -1.000000000000 0.000000000000 0.000000000000
vn -1.000000000000 0.000000000000 0.000000000000
vn -1.000000000000 0.000000000000 0.000000000000
vn -1.000000000000 0.000000000000 0.000000000000
vn 0.000000138750 0.885264158249 -0.465088546276
vn 0.000000000000 0.885264217854 -0.465088486671
vn 0.000000079376 0.885264217854 -0.465088516474
vn 0.000000218126 0.885264158249 -0.465088546276
vn -0.000000138750 0.885264158249 -0.465088635683
vn 0.000000000000 0.885264098644 -0.465088725090
vn -0.000000079376 0.885264098644 -0.465088725090
vn -0.000000218126 0.885264158249 -0.465088605881
vn 0.000000000000 0.828892529011 0.559407830238
vn 0.000000000000 0.828892529011 0.559407830238
vn 0.000000000000 0.828892529011 0.559407830238
vn 0.000000000000 0.828892529011 0.559407830238
vn 0.716673731804 0.697069704533 0.021741753444
vn 0.716673731804 0.697069704533 0.021741753444
vn 0.716673731804 0.697069704533 0.021741753444
vn 0.716673731804 0.697069704533 0.021741753444
vn 0.000000000000 0.870621323586 -0.491953790188
vn 0.000000000000 0.870621323586 -0.491953790188
vn 0.000000000000 0.870621323586 -0.491953790188
vn 0.000000000000 0.870621323586 -0.491953790188
vn -0.716674089432 0.697069168091 0.021741734818
vn -0.716674089432 0.697069168091 0.021741734818
vn -0.716674089432 0.697069168091 0.021741734818
vn -0.716674089432 0.697069168091 0.021741734818
vn 1.000000000000 -0.000002713696 0.000002289181
vn 1.000000000000 -0.000003485804 0.000002572421
vn 1.000000000000 -0.000000780208 0.000001579901
vn 1.000000000000 -0.000000000208 0.000001293766
# 156 vertex normals

g Amiga
f 1//1 3//2 13//3 15//4 
f 5//5 14//6 16//7 7//8 
f 15//9 14//10 5//11 1//12 
f 2//13 4//14 8//15 6//16 
f 9//17 12//18 8//19 4//20 
f 3//21 1//22 5//23 7//24 
f 4//25 2//26 10//27 9//28 
f 6//29 8//30 12//31 11//32 
f 2//33 6//34 11//35 10//36 
f 13//37 16//38 12//39 9//40 
f 9//41 10//42 15//43 13//44 
f 14//45 11//46 12//47 16//48 
f 10//49 11//50 14//51 15//52 
f 3//53 7//54 16//55 13//56 
f 18//57 19//58 20//59 17//60 
f 21//61 22//62 23//63 24//64 
f 33//65 34//66 26//67 25//68 
f 30//69 35//70 36//71 29//72 
f 25//73 26//74 30//75 29//76 
f 26//77 34//78 35//79 30//80 
f 28//81 27//82 31//83 32//84 
f 33//85 36//86 31//87 27//88 
f 27//89 28//90 34//91 33//92 
f 32//93 31//94 36//95 35//96 
f 34//97 28//98 32//99 35//100 
f 25//101 29//102 36//103 33//104 
f 39//105 40//106 38//107 37//108 
f 54//109 55//110 56//111 53//112 
f 37//113 38//114 42//115 41//116 
f 40//117 44//118 42//119 38//120 
f 40//121 39//122 43//123 44//124 
f 37//125 41//126 43//127 39//128 
f 47//129 48//130 51//131 50//132 
f 45//133 46//134 49//135 52//136 
f 41//137 42//138 54//139 53//140 
f 42//141 44//142 55//143 54//144 
f 44//145 43//146 56//147 55//148 
f 43//149 41//150 53//151 56//152 
f 57//153 58//154 59//155 60//156 
# 39 polygons

