# 3ds Max Wavefront OBJ Exporter v0.97b - (c)2007 guruware
# File Created: 07.08.2014 19:52:15

#
# object Paul_Levion_V2
#

v  0.109715625644 -0.464101523161 -0.000425440056
v  0.077695704997 -0.464101523161 -0.077302940190
v  0.000413894362 -0.464101523161 -0.109322868288
v  -0.076910138130 -0.464101523161 -0.077302940190
v  -0.108930058777 -0.464101523161 -0.000425628154
v  -0.076910123229 -0.464101523161 0.077302917838
v  0.000416045659 -0.464101523161 0.109322816133
v  0.077695697546 -0.464101523161 0.077302917838
v  0.083009280264 0.479304403067 -0.000425413193
v  0.058811467141 0.479304403067 -0.058418709785
v  0.000416469353 0.479304403067 -0.082616522908
v  -0.058025911450 0.479304403067 -0.058418709785
v  -0.082223728299 0.479304403067 -0.000425555336
v  -0.058025904000 0.479304403067 0.058418683708
v  0.000418095093 0.479304403067 0.082616485655
v  0.058811459690 0.479304403067 0.058418683708
v  -0.184522509575 -0.256403565407 0.184915333986
v  -0.261116921902 -0.256403565407 -0.000425749749
v  -0.184522509575 -0.256403565407 -0.184915348887
v  0.000412829628 -0.256403565407 -0.261509716511
v  0.185308113694 -0.256403565407 -0.184915333986
v  0.261902511120 -0.256403565407 -0.000425299775
v  0.185308083892 -0.256403565407 0.184915348887
v  0.000417975767 -0.256403565407 0.261509716511
v  -0.058877609670 0.289170473814 0.059270393103
v  -0.083428233862 0.289170473814 -0.000425564533
v  -0.058877617121 0.289170473814 -0.059270415455
v  0.000416079245 0.289170473814 -0.083821021020
v  0.059663172811 0.289170473814 -0.059270415455
v  0.084213778377 0.289170473814 -0.000425420294
v  0.059663165361 0.289170473814 0.059270393103
v  0.000417728734 0.289170473814 0.083820991218
v  0.000326007314 0.509868741035 -0.103688560426
v  0.000416141993 0.299075216055 -0.076423324645
v  -0.101975925267 0.509868741035 -0.000501681061
v  -0.074929453433 0.299075216055 -0.000425557431
v  0.000328049209 0.509868741035 0.103840760887
v  0.000417645904 0.299075216055 0.076423309743
v  0.104000739753 0.509868741035 -0.000501503877
v  0.076773650944 0.299075216055 -0.000425426901
v  0.000416086405 0.299075216055 -0.082073919475
v  -0.080580055714 0.299075216055 -0.000425562292
v  0.000417701493 0.299075216055 0.082073897123
v  0.082424238324 0.299075216055 -0.000425422040
v  0.000414887996 -0.496185123920 -0.000425535836
v  -0.206806704402 -0.088022977114 -0.000425645965
v  -0.257790744305 -0.256000936031 -0.000425699138
v  -0.264955371618 -0.256000936031 -0.000425715261
v  -0.304267346859 -0.087893724442 -0.000425729813
v  0.206806704402 -0.088531762362 -0.000425368256
v  0.258487254381 -0.256509721279 -0.000425333099
v  0.265651881695 -0.256509721279 -0.000425316975
v  0.304267346859 -0.088402479887 -0.000425284408
v  -0.074929445982 0.474067360163 -0.000425549719
v  -0.257401525974 0.474067360163 -0.000425706734
v  0.076773665845 0.474067360163 -0.000425419188
v  0.259245663881 0.474067360163 -0.000425262202
v  0.000416500028 0.474067360163 -0.076423324645
v  0.000414704729 0.474067360163 -0.258895337582
v  0.000418003910 0.474067360163 0.076423309743
v  0.000419799355 0.474067360163 0.258895337582
v  -0.304477393627 -0.215984225273 -0.000425718696
v  0.305124968290 -0.215984225273 -0.000425309117
# 63 vertices

vn 0.764671623707 -0.560455143452 -0.318068146706
vn 0.666639506817 -0.143104597926 -0.731514096260
vn 0.988735914230 -0.142811954021 0.044789291918
vn 0.764635860920 -0.560272693634 -0.318475216627
vn -0.316841632128 -0.560592114925 -0.765080273151
vn -0.731003582478 -0.142923742533 -0.667237997055
vn 0.045632015914 -0.142972752452 -0.988674104214
vn -0.316820949316 -0.560601353645 -0.765082061291
vn -0.765448033810 -0.560711920261 0.315739601851
vn -0.667075693607 -0.142822116613 0.731171548367
vn -0.988617956638 -0.143113240600 -0.046401318163
vn -0.765481710434 -0.560892462730 0.315336853266
vn 0.316963255405 -0.560579478741 0.765039145947
vn 0.731678485870 -0.143003225327 0.666480839252
vn -0.045546900481 -0.142955556512 0.988680541515
vn 0.316984087229 -0.560570180416 0.765037357807
vn 0.000013168851 -0.981530249119 -0.191306963563
vn 0.000000000000 -1.000000000000 -0.000000000000
vn 0.190201237798 -0.981745064259 -0.000272151054
vn 0.000051930216 -0.999999523163 -0.001002256875
vn 0.138806372881 0.113155677915 -0.983833611012
vn 0.597097098827 0.113102190197 -0.794155478477
vn 0.666639506817 -0.143104597926 -0.731514096260
vn 0.045632015914 -0.142972752452 -0.988674104214
vn -0.983498215675 0.113251991570 -0.141085773706
vn -0.792626917362 0.113177902997 -0.599110484123
vn -0.731003582478 -0.142923742533 -0.667237997055
vn -0.988617956638 -0.143113240600 -0.046401318163
vn -0.138534024358 0.113144621253 0.983873248100
vn -0.598151326180 0.113197907805 0.793348133564
vn -0.667075693607 -0.142822116613 0.731171548367
vn -0.045546900481 -0.142955556512 0.988680541515
vn 0.984199523926 0.113050848246 0.136274844408
vn 0.794852793217 0.113122120500 0.596164703369
vn 0.731678485870 -0.143003225327 0.666480839252
vn 0.988735914230 -0.142811954021 0.044789291918
vn 0.706228315830 0.006329464260 -0.707955837250
vn 0.999976634979 0.006329534575 -0.002574698301
vn 0.984199523926 0.113050848246 0.136274844408
vn 0.597097098827 0.113102190197 -0.794155478477
vn 0.000143652738 0.006335497368 -0.999979913235
vn 0.706228315830 0.006329464260 -0.707955837250
vn 0.597097098827 0.113102190197 -0.794155478477
vn 0.138806372881 0.113155677915 -0.983833611012
vn -0.706123888493 0.006335486192 -0.708059966564
vn 0.000143652738 0.006335497368 -0.999979913235
vn 0.138806372881 0.113155677915 -0.983833611012
vn -0.792626917362 0.113177902997 -0.599110484123
vn -0.999976575375 0.006340256892 -0.002575510647
vn -0.706123888493 0.006335486192 -0.708059966564
vn -0.792626917362 0.113177902997 -0.599110484123
vn -0.983498215675 0.113251991570 -0.141085773706
vn -0.707941353321 0.006340191234 0.706242799759
vn -0.999976575375 0.006340256892 -0.002575510647
vn -0.983498215675 0.113251991570 -0.141085773706
vn -0.598151326180 0.113197907805 0.793348133564
vn 0.000153433328 0.006334257778 0.999979913235
vn -0.707941353321 0.006340191234 0.706242799759
vn -0.598151326180 0.113197907805 0.793348133564
vn -0.138534024358 0.113144621253 0.983873248100
vn 0.708051800728 0.006334237754 0.706132054329
vn 0.000153433328 0.006334257778 0.999979913235
vn -0.138534024358 0.113144621253 0.983873248100
vn 0.794852793217 0.113122120500 0.596164703369
vn 0.999976634979 0.006329534575 -0.002574698301
vn 0.708051800728 0.006334237754 0.706132054329
vn 0.794852793217 0.113122120500 0.596164703369
vn 0.984199523926 0.113050848246 0.136274844408
vn 0.190201237798 -0.981745064259 -0.000272151054
vn 0.000000000000 -1.000000000000 -0.000000000000
vn 0.000015183758 -0.981980264187 0.188983544707
vn 0.000051930216 -0.999999523163 -0.001002256875
vn 0.000015183758 -0.981980264187 0.188983544707
vn 0.000000000000 -1.000000000000 -0.000000000000
vn -0.190080419183 -0.981768488884 -0.000270802440
vn 0.000051930216 -0.999999523163 -0.001002256875
vn -0.190080419183 -0.981768488884 -0.000270802440
vn 0.000000000000 -1.000000000000 -0.000000000000
vn 0.000013168851 -0.981530249119 -0.191306963563
vn 0.000051930216 -0.999999523163 -0.001002256875
vn 0.000001224432 0.000000800702 -1.000000000000
vn 0.000002250434 0.000002136794 -1.000000000000
vn 0.000000411059 -0.000000009166 -1.000000000000
vn 0.000000771212 0.000000030741 -1.000000000000
vn 0.000000860402 0.000000055400 -1.000000000000
vn 0.000001224432 0.000000800702 -1.000000000000
vn 0.000000771212 0.000000030741 -1.000000000000
vn -0.000001229447 0.000000686164 1.000000000000
vn -0.000002250434 0.000001998089 1.000000000000
vn -0.000000411019 -0.000000118754 1.000000000000
vn -0.000000770953 -0.000000079690 1.000000000000
vn -0.000000860255 -0.000000055370 1.000000000000
vn -0.000001229447 0.000000686164 1.000000000000
vn -0.000000770953 -0.000000079690 1.000000000000
vn 0.000000860484 -0.000787219149 -0.999999701977
vn 0.000000860145 0.000000044073 -1.000000000000
vn 0.000000860265 0.000000044070 -1.000000000000
vn 0.000000860489 -0.000478093687 -0.999999880791
vn 0.000000860487 -0.002125836676 -0.999997735023
vn 0.000000860484 -0.000787219149 -0.999999701977
vn 0.000000860489 -0.000478093687 -0.999999880791
vn -0.000000860327 0.000785498240 0.999999701977
vn -0.000000860148 -0.000000044073 1.000000000000
vn -0.000000860211 -0.000000044075 1.000000000000
vn -0.000000860330 0.000478510687 0.999999880791
vn -0.000000860328 0.002125838306 0.999997735023
vn -0.000000860327 0.000785498240 0.999999701977
vn -0.000000860330 0.000478510687 0.999999880791
vn -0.999999582767 -0.000927785586 0.000009839531
vn -1.000000000000 0.000002045842 0.000009837618
vn -1.000000000000 0.000002045864 0.000009838295
vn -0.999999821186 -0.000566240458 0.000009839559
vn -0.999996840954 -0.002520131879 0.000009839529
vn -0.999999582767 -0.000927785586 0.000009839531
vn -0.999999821186 -0.000566240458 0.000009839559
vn 0.999999582767 0.000929502188 -0.000009838745
vn 1.000000000000 -0.000002046008 -0.000009837605
vn 1.000000000000 -0.000002045995 -0.000009838007
vn 0.999999821186 0.000565822935 -0.000009838762
vn 0.999996840954 0.002520130947 -0.000009838732
vn 0.999999582767 0.000929502188 -0.000009838745
vn 0.999999821186 0.000565822935 -0.000009838762
# 122 vertex normals

g Paul_Levion_V2
f 2//1 21//2 22//3 1//4 
f 4//5 19//6 20//7 3//8 
f 6//9 17//10 18//11 5//12 
f 8//13 23//14 24//15 7//16 
f 3//17 2//18 1//19 45//20 
f 28//21 29//22 21//23 20//24 
f 26//25 27//26 19//27 18//28 
f 32//29 25//30 17//31 24//32 
f 30//33 31//34 23//35 22//36 
f 10//37 9//38 30//39 29//40 
f 11//41 10//42 29//43 28//44 
f 12//45 11//46 28//47 27//48 
f 13//49 12//50 27//51 26//52 
f 14//53 13//54 26//55 25//56 
f 15//57 14//58 25//59 32//60 
f 16//61 15//62 32//63 31//64 
f 9//65 16//66 31//67 30//68 
f 1//69 8//70 7//71 45//72 
f 7//73 6//74 5//75 45//76 
f 5//77 4//78 3//79 45//80 
f 47//81 48//82 62//83 49//84 
f 46//85 47//86 49//87 
f 51//88 52//89 63//90 53//91 
f 50//92 51//93 53//94 
f 54//95 36//96 42//97 55//98 
f 35//99 54//100 55//101 
f 56//102 40//103 44//104 57//105 
f 39//106 56//107 57//108 
f 60//109 38//110 43//111 61//112 
f 37//113 60//114 61//115 
f 58//116 34//117 41//118 59//119 
f 33//120 58//121 59//122 
# 26 polygons - 6 triangles

