# 3ds Max Wavefront OBJ Exporter v0.97b - (c)2007 guruware
# File Created: 07.08.2014 20:53:26

#
# object Primer_Minister_Maya
#

v  -0.447252273560 -0.361374050379 0.000837317668
v  -0.277433782816 -0.196325778961 0.000837344502
v  -0.130512207747 -0.314626216888 0.000837326865
v  0.177641496062 -0.274556696415 0.001716219005
v  0.322654992342 0.002113789320 0.000837376807
v  0.193860113621 0.309313505888 0.012992329895
v  -0.018889965490 0.471499890089 0.041449066252
v  0.145204246044 0.279738396406 0.016790373251
v  0.217711031437 0.013562232256 0.006046819501
v  0.106088787317 -0.180107116699 0.005243756808
v  -0.114293582737 -0.228762984276 0.006512104068
v  -0.256444990635 -0.109508484602 0.000837358646
v  -0.494954079390 -0.277418822050 0.000837331347
v  -0.447252273560 -0.361374050379 0.117639988661
v  -0.277433782816 -0.196325778961 0.117640018463
v  -0.130512207747 -0.314626276493 0.117640003562
v  0.177641496062 -0.274556756020 0.116761118174
v  0.322654992342 0.002113789320 0.117640055716
v  0.193860113621 0.309313505888 0.105485193431
v  -0.018889965490 0.471499890089 0.077028520405
v  0.145204246044 0.279738396406 0.101687148213
v  0.217711031437 0.013562232256 0.112430609763
v  0.106088787317 -0.180107146502 0.113233618438
v  -0.114293582737 -0.228762999177 0.111965253949
v  -0.256444990635 -0.109508484602 0.117640033364
v  -0.494954079390 -0.277418822050 0.117640011013
v  -0.154846414924 0.282835811377 -0.117640003562
v  -0.335885792971 0.118659883738 -0.117640011013
v  -0.247513800859 0.031304299831 -0.117640018463
v  -0.155949980021 0.122355550528 -0.117640011013
v  0.230160921812 -0.320108294487 -0.117640078068
v  0.307494133711 -0.248840585351 -0.117640078068
v  -0.103461965919 0.176753133535 -0.117640011013
v  0.001698712935 0.281842857599 -0.117640003562
v  -0.154846414924 0.282835811377 -0.000837325351
v  -0.335885792971 0.118659824133 -0.000837341417
v  -0.247513800859 0.031304299831 -0.000837355678
v  -0.155949980021 0.122355550528 -0.000837340776
v  0.230160921812 -0.320108294487 -0.000837402244
v  0.307494133711 -0.248840630054 -0.000837401254
v  -0.103461965919 0.176753133535 -0.000837342581
v  0.001698712935 0.281842797995 -0.000837325351
v  0.494954079390 0.382939010859 -0.062068361789
v  0.494954079390 0.606132626534 -0.062068331987
v  0.439784139395 0.606132626534 -0.062068331987
v  0.407705128193 0.576880574226 -0.062068335712
v  0.380523920059 0.606132626534 -0.062068331987
v  0.323827266693 0.606132626534 -0.062068331987
v  0.323827266693 0.382939010859 -0.062068361789
v  0.372837334871 0.382939010859 -0.062068361789
v  0.372837334871 0.542868614197 -0.062068343163
v  0.409136950970 0.508979797363 -0.062068346888
v  0.445943921804 0.543208479881 -0.062068343163
v  0.445943921804 0.382939010859 -0.062068361789
v  0.494954079390 0.382939010859 0.051267456263
v  0.494954079390 0.606132626534 0.051267493516
v  0.439784139395 0.606132626534 0.051267493516
v  0.407705128193 0.576880574226 0.051267489791
v  0.380523920059 0.606132626534 0.051267493516
v  0.323827266693 0.606132626534 0.051267493516
v  0.323827266693 0.382939010859 0.051267456263
v  0.372837334871 0.382939010859 0.051267456263
v  0.372837334871 0.542868614197 0.051267482340
v  0.409136950970 0.508979797363 0.051267478615
v  0.445943921804 0.543208479881 0.051267482340
v  0.445943921804 0.382939010859 0.051267456263
# 66 vertices

vn -0.627159059048 -0.778891205788 -0.000000257178
vn -0.627159237862 -0.778891086578 -0.000000000000
vn -0.627159118652 -0.778891146183 -0.000000140292
vn -0.627158939838 -0.778891265392 -0.000000397470
vn 0.885711967945 -0.464235186577 -0.000000054078
vn 0.885711967945 -0.464235126972 -0.000000240520
vn 0.885712027550 -0.464235126972 -0.000000185775
vn 0.885711967945 -0.464235216379 -0.000000000000
vn 0.606258630753 0.795267581940 -0.000000000000
vn 0.606258571148 0.795267581940 -0.000000000000
vn 0.606258630753 0.795267522335 -0.000000000000
vn 0.606258630753 0.795267522335 -0.000000000000
vn -0.759790420532 -0.650168061256 -0.000000000000
vn -0.759790360928 -0.650168120861 -0.000000000000
vn -0.759790420532 -0.650168120861 -0.000000000000
vn -0.759790420532 -0.650168061256 -0.000000000000
vn -0.866398632526 0.499353021383 0.000000098807
vn -0.866398632526 0.499352931976 -0.000000000000
vn -0.866398632526 0.499352961779 0.000000039452
vn -0.866398632526 0.499352991581 0.000000137808
vn 0.642709493637 0.766110002995 0.000000035779
vn 0.642709553242 0.766109943390 0.000000108256
vn 0.642709493637 0.766110002995 0.000000069710
vn 0.642709493637 0.766109943390 -0.000000000000
vn -0.869456648827 -0.494009196758 -0.000000000000
vn -0.869456648827 -0.494009226561 -0.000000000000
vn -0.869456708431 -0.494009137154 -0.000000000000
vn -0.869456708431 -0.494009166956 -0.000000000000
vn -0.000000000229 0.000000162834 -1.000000000000
vn -0.000000000288 0.000000162992 -1.000000000000
vn -0.000000000276 0.000000162962 -1.000000000000
vn -0.000000000218 0.000000162806 -1.000000000000
vn 0.000000050415 -0.000000227108 1.000000000000
vn 0.000000053639 -0.000000235757 1.000000000000
vn 0.000000036048 -0.000000188570 1.000000000000
vn 0.000000032681 -0.000000179539 1.000000000000
vn -0.078737512231 0.017057837918 0.996749460697
vn -0.087668575346 0.016320368275 0.996016025543
vn -0.051281943917 0.019313048571 0.998497426510
vn -0.047433611006 0.019627721980 0.998681545258
vn -0.010331137106 0.038782119751 0.999194264412
vn -0.011989092454 0.028247725219 0.999529063702
vn -0.007029634435 0.059724040329 0.998190164566
vn -0.005872942507 0.067049995065 0.997732341290
vn -0.051281906664 0.019313372672 -0.998497426510
vn -0.087668709457 0.016320671886 -0.996015965939
vn -0.078737601638 0.017058147117 -0.996749401093
vn -0.047433543950 0.019628049806 -0.998681545258
vn -0.007029655855 0.059724409133 -0.998190164566
vn -0.011989103630 0.028248125687 -0.999529063702
vn -0.010331152007 0.038782510906 -0.999194264412
vn -0.005872966256 0.067050352693 -0.997732281685
vn -0.671764314175 0.740764915943 0.000000270724
vn -0.671764373779 0.740764915943 -0.000000000000
vn -0.671764373779 0.740764915943 0.000000107290
vn -0.671764254570 0.740765035152 0.000000378014
vn -0.703005015850 -0.711184859276 -0.000000174314
vn -0.703004896641 -0.711185038090 -0.000000362919
vn -0.703005015850 -0.711184918880 -0.000000188605
vn -0.703005135059 -0.711184740067 -0.000000000000
vn 0.705119311810 -0.709088683128 -0.000000000000
vn 0.705119252205 -0.709088742733 -0.000000000000
vn 0.705119311810 -0.709088683128 -0.000000000000
vn 0.705119311810 -0.709088683128 -0.000000000000
vn 0.677680134773 -0.735356807709 -0.000000131334
vn 0.677680015564 -0.735356926918 -0.000000000000
vn 0.677680134773 -0.735356807709 -0.000000150106
vn 0.677680253983 -0.735356688499 -0.000000281441
vn 0.706868052483 -0.707345485687 -0.000000207933
vn 0.706867933273 -0.707345545292 -0.000000000000
vn 0.706867992878 -0.707345485687 -0.000000153027
vn 0.706868052483 -0.707345426083 -0.000000360960
vn 0.006342951208 0.999979853630 0.000000208239
vn 0.006343176123 0.999979853630 0.000000510292
vn 0.006343021058 0.999979853630 0.000000302053
vn 0.006342796143 0.999979913235 -0.000000000000
vn 0.000000085939 -0.000000055631 1.000000000000
vn 0.000000063867 -0.000000083188 1.000000000000
vn 0.000000065906 -0.000000080642 1.000000000000
vn 0.000000088595 -0.000000052314 1.000000000000
vn -0.000000077757 0.000000083566 -1.000000000000
vn -0.000000077410 0.000000083999 -1.000000000000
vn -0.000000081163 0.000000079313 -1.000000000000
vn -0.000000081614 0.000000078749 -1.000000000000
vn 1.000000000000 0.000000000000 -0.000000000000
vn 1.000000000000 0.000000000000 -0.000000000000
vn 1.000000000000 0.000000000000 -0.000000000000
vn 1.000000000000 0.000000000000 -0.000000000000
vn 0.000000000000 1.000000000000 -0.000000000000
vn 0.000000000000 1.000000000000 -0.000000000000
vn 0.000000000000 1.000000000000 -0.000000000000
vn 0.000000000000 1.000000000000 -0.000000000000
vn -0.673798441887 0.738915205002 -0.000000000000
vn -0.673798441887 0.738915205002 -0.000000000000
vn -0.673798441887 0.738915205002 -0.000000000000
vn -0.673798441887 0.738915205002 -0.000000000000
vn 0.732561349869 0.680701017380 -0.000000000000
vn 0.732561349869 0.680701017380 -0.000000000000
vn 0.732561349869 0.680701017380 -0.000000000000
vn 0.732561349869 0.680701017380 -0.000000000000
vn 0.000000000000 1.000000000000 -0.000000000000
vn 0.000000000000 1.000000000000 -0.000000000000
vn 0.000000000000 1.000000000000 -0.000000000000
vn 0.000000000000 1.000000000000 -0.000000000000
vn -1.000000000000 0.000000000000 -0.000000000000
vn -1.000000000000 0.000000000000 -0.000000000000
vn -1.000000000000 0.000000000000 -0.000000000000
vn -1.000000000000 0.000000000000 -0.000000000000
vn 0.000000000000 -1.000000000000 -0.000000000000
vn 0.000000000000 -1.000000000000 -0.000000000000
vn 0.000000000000 -1.000000000000 -0.000000000000
vn 0.000000000000 -1.000000000000 -0.000000000000
vn 1.000000000000 0.000000000000 -0.000000000000
vn 1.000000000000 0.000000000000 -0.000000000000
vn 1.000000000000 0.000000000000 -0.000000000000
vn 1.000000000000 0.000000000000 -0.000000000000
vn -0.000972875394 -0.999999523163 -0.000000000000
vn -0.682416975498 -0.730963110924 -0.000000000000
vn -0.682416975498 -0.730963110924 -0.000000000000
vn -0.000972823531 -0.999999523163 -0.000000000000
vn 0.680993437767 -0.732289493084 -0.000000000000
vn -0.000972875394 -0.999999523163 -0.000000000000
vn -0.000972823531 -0.999999523163 -0.000000000000
vn 0.680993378162 -0.732289552689 -0.000000000000
vn -1.000000000000 0.000000000000 -0.000000000000
vn -1.000000000000 0.000000000000 -0.000000000000
vn -1.000000000000 0.000000000000 -0.000000000000
vn -1.000000000000 0.000000000000 -0.000000000000
vn 0.000000000000 -1.000000000000 -0.000000000000
vn 0.000000000000 -1.000000000000 -0.000000000000
vn 0.000000000000 -1.000000000000 -0.000000000000
vn 0.000000000000 -1.000000000000 -0.000000000000
# 132 vertex normals

g Primer_Minister_Maya
f 16//1 15//2 2//3 3//4 
f 18//5 17//6 4//7 5//8 
f 20//9 19//10 6//11 7//12 
f 7//13 8//14 21//15 20//16 
f 23//17 22//18 9//19 10//20 
f 25//21 24//22 11//23 12//24 
f 14//25 26//26 13//27 1//28 
f 13//29 12//30 2//31 1//32 
f 26//33 14//34 15//35 25//36 
f 19//37 21//38 22//39 18//40 
f 17//41 23//42 24//43 16//44 
f 9//45 8//46 6//47 5//48 
f 11//49 10//50 4//51 3//52 
f 36//53 35//54 27//55 28//56 
f 37//57 36//58 28//59 29//60 
f 38//61 37//62 29//63 30//64 
f 40//65 39//66 31//67 32//68 
f 42//69 41//70 33//71 34//72 
f 35//73 42//74 34//75 27//76 
f 38//77 39//78 40//79 41//80 
f 32//81 31//82 30//83 33//84 
f 56//85 55//86 43//87 44//88 
f 57//89 56//90 44//91 45//92 
f 58//93 57//94 45//95 46//96 
f 59//97 58//98 46//99 47//100 
f 60//101 59//102 47//103 48//104 
f 61//105 60//106 48//107 49//108 
f 62//109 61//110 49//111 50//112 
f 63//113 62//114 50//115 51//116 
f 64//117 63//118 51//119 52//120 
f 65//121 64//122 52//123 53//124 
f 66//125 65//126 53//127 54//128 
f 55//129 66//130 54//131 43//132 
# 33 polygons

