# 3ds Max Wavefront OBJ Exporter v0.97b - (c)2007 guruware
# File Created: 07.08.2014 22:53:07

#
# object U_head_V2
#

v  -0.390744775534 -0.003683077870 -0.017070250586
v  -0.007048141211 -0.003683077870 -0.017070250586
v  -0.405851453543 0.285989671946 -0.057988975197
v  -0.007342716679 0.309503823519 -0.058164179325
v  -0.390744775534 -0.003683058312 -0.153712823987
v  -0.007048141211 -0.003683058312 -0.153712823987
v  -0.406557142735 0.299520075321 -0.200261861086
v  -0.007355438080 0.323034197092 -0.200865879655
v  0.007533187047 -0.003683077870 -0.017070250586
v  0.391229867935 -0.003683077870 -0.017070250586
v  0.007834336720 0.295836210251 -0.058062337339
v  0.406862854958 0.295709222555 -0.058061391115
v  0.007533187047 -0.003683058312 -0.153712823987
v  0.391229867935 -0.003683058312 -0.153712823987
v  0.007851065136 0.312476575375 -0.200594663620
v  0.407731711864 0.312349557877 -0.200591385365
v  -0.522900283337 -0.212025314569 -0.294953465462
v  0.522900342941 -0.212025314569 -0.294953465462
v  -0.386173874140 -0.212025344372 0.294953256845
v  0.397219210863 -0.003683116753 0.303389489651
v  -0.397219121456 -0.003683038987 -0.169672340155
v  -0.397219121456 -0.003683116753 0.303389489651
v  0.397219210863 -0.003683038987 -0.169672340155
v  -0.547353208065 0.128613531590 -0.308746546507
v  -0.547353208065 0.128613322973 0.308746576309
v  -0.404232829809 0.128613322973 0.308746576309
v  -0.404232829809 0.128613471985 -0.172668188810
v  0.404232889414 0.128613471985 -0.172668188810
v  0.404232889414 0.128613322973 0.308746576309
v  0.547353267670 0.128613531590 -0.308746546507
v  0.402553617954 -0.323034256697 0.267271220684
v  0.493651330471 -0.323034256697 0.267271220684
v  0.501290917397 -0.212025344372 0.271407425404
v  0.408783406019 -0.212025344372 0.271407425404
v  0.501290917397 -0.212025344372 0.138564497232
v  0.493651330471 -0.323034256697 0.136452734470
v  0.493651330471 -0.323034226894 -0.133773401380
v  0.501290917397 -0.212025344372 -0.135843575001
v  0.402553617954 -0.323034197092 -0.264591902494
v  0.408783406019 -0.212025314569 -0.268686532974
v  0.501290917397 -0.212025314569 -0.268686532974
v  0.493651330471 -0.323034197092 -0.264591902494
v  -0.492930859327 -0.323034256697 0.267271220684
v  -0.401833117008 -0.323034256697 0.267271220684
v  -0.408051818609 -0.212025344372 0.271407425404
v  -0.500559329987 -0.212025344372 0.271407425404
v  -0.492930859327 -0.323034256697 0.136452734470
v  -0.500559329987 -0.212025344372 0.138564512134
v  -0.492930859327 -0.323034226894 -0.133773371577
v  -0.500559329987 -0.212025344372 -0.135843575001
v  -0.492930859327 -0.323034197092 -0.264591902494
v  -0.500559329987 -0.212025314569 -0.268686532974
v  -0.408051818609 -0.212025314569 -0.268686532974
v  -0.401833117008 -0.323034197092 -0.264591902494
v  -0.522900283337 -0.212025344372 0.294953256845
v  0.522900402546 -0.212025344372 0.294953256845
v  0.386173903942 -0.212025344372 0.294953256845
v  0.547353267670 0.128613322973 0.308746576309
# 58 vertices

vn -0.004483569879 0.135489642620 0.990768611431
vn 0.000000000000 0.130097016692 0.991501271725
vn -0.003248247085 0.134004518390 0.990975379944
vn -0.007793966681 0.139467090368 0.990196049213
vn 0.999999582767 0.000940563797 0.000000009351
vn 0.999999582767 0.000940558559 0.000000000135
vn 0.999999582767 0.000940572703 0.000000025264
vn 0.999999582767 0.000940578058 0.000000034887
vn -0.058440562338 0.993821442127 0.094359420240
vn -0.058397173882 0.993835628033 0.094236508012
vn -0.058552477509 0.993784666061 0.094676382840
vn -0.058596096933 0.993770301342 0.094799965620
vn -0.998642921448 -0.052080180496 0.000000339293
vn -0.998642921448 -0.052080221474 0.000000457423
vn -0.998642921448 -0.052080105990 0.000000119599
vn -0.998642921448 -0.052080072463 -0.000000007454
vn 0.000023965073 0.135617598891 0.990761280060
vn 0.000000000000 0.135648965836 0.990756988525
vn 0.000017404449 0.135626167059 0.990760087967
vn 0.000040802803 0.135595545173 0.990764260292
vn 0.998639523983 -0.052144635469 -0.000000064077
vn 0.998639523983 -0.052144601941 -0.000000007464
vn 0.998639523983 -0.052144683897 -0.000000155601
vn 0.998639523983 -0.052144721150 -0.000000215956
vn 0.000314824109 0.993253469467 0.115963183343
vn 0.000314544828 0.993253350258 0.115963965654
vn 0.000315540005 0.993253707886 0.115961216390
vn 0.000315820245 0.993253767490 0.115960448980
vn -0.999999523163 0.001005438739 0.000000012966
vn -0.999999523163 0.001005437458 0.000000017108
vn -0.999999523163 0.001005441300 0.000000004650
vn -0.999999523163 0.001005442697 0.000000000144
vn -0.000000045331 1.000000000000 0.000000375816
vn -0.000000060429 1.000000000000 0.000000374460
vn -0.000000017713 1.000000000000 0.000000333738
vn 0.000000000000 1.000000000000 0.000000337844
vn 0.000000000000 -0.040459197015 0.999181210995
vn 0.000000000000 -0.040459197015 0.999181210995
vn 0.000000000000 -0.040459033102 0.999181210995
vn 0.000000000000 -0.040459036827 0.999181210995
vn 0.000000000000 1.000000000000 0.000000164387
vn 0.000000000000 1.000000000000 0.000000164387
vn 0.000000000000 1.000000000000 0.000000164387
vn 0.000000000000 1.000000000000 0.000000164387
vn -0.997433364391 -0.071601256728 -0.000000017616
vn -0.997433364391 -0.071601264179 -0.000000024190
vn -0.997433364391 -0.071601241827 -0.000000010538
vn -0.997433364391 -0.071601226926 -0.000000003617
vn 0.000000000000 0.022639153525 0.999743700027
vn 0.000000000000 0.022639153525 0.999743700027
vn 0.000000000000 0.022639153525 0.999743700027
vn 0.000000000000 0.022639153525 0.999743700027
vn 0.997433364391 -0.071601189673 -0.000000049819
vn 0.997433364391 -0.071601241827 -0.000000024190
vn 0.997433364391 -0.071601144969 -0.000000077417
vn 0.997433364391 -0.071601100266 -0.000000104399
vn 0.000000000000 -0.040458653122 -0.999181210995
vn 0.000000000000 -0.040458649397 -0.999181210995
vn 0.000000000000 -0.040458645672 -0.999181210995
vn 0.000000000000 -0.040458649397 -0.999181210995
vn 0.000000000000 -0.037234276533 0.999306559563
vn 0.000000000000 -0.037234276533 0.999306559563
vn 0.000000000000 -0.037234276533 0.999306559563
vn 0.000000000000 -0.037234272808 0.999306559563
vn 0.997640311718 -0.068657189608 -0.000000000000
vn 0.997640311718 -0.068657189608 -0.000000000000
vn 0.997640311718 -0.068657197058 -0.000000000000
vn 0.997640311718 -0.068657189608 -0.000000000000
vn 0.000000000000 -0.036860544235 -0.999320447445
vn 0.000000000000 -0.036860544235 -0.999320447445
vn 0.000000000000 -0.036860540509 -0.999320447445
vn 0.000000000000 -0.036860544235 -0.999320447445
vn 0.997640311718 -0.068657204509 -0.000000015509
vn 0.997640311718 -0.068657204509 -0.000000015641
vn 0.997640311718 -0.068657204509 -0.000000015534
vn 0.997640311718 -0.068657211959 -0.000000015403
vn 0.000000000000 -0.037234276533 0.999306559563
vn 0.000000000000 -0.037234276533 0.999306559563
vn 0.000000000000 -0.037234272808 0.999306559563
vn 0.000000000000 -0.037234272808 0.999306559563
vn -0.997647166252 -0.068557761610 -0.000000000000
vn -0.997647166252 -0.068557761610 -0.000000000000
vn -0.997647166252 -0.068557761610 -0.000000000000
vn -0.997647166252 -0.068557761610 -0.000000000000
vn 0.000000000000 -0.036860544235 -0.999320447445
vn 0.000000000000 -0.036860540509 -0.999320447445
vn 0.000000000000 -0.036860544235 -0.999320447445
vn 0.000000000000 -0.036860547960 -0.999320447445
vn -0.997647166252 -0.068557769060 -0.000000015512
vn -0.997647166252 -0.068557776511 -0.000000015380
vn -0.997647166252 -0.068557776511 -0.000000015486
vn -0.997647166252 -0.068557776511 -0.000000015618
vn 0.000000017522 1.000000000000 0.000000314738
vn 0.000000000000 1.000000000000 0.000000309529
vn 0.000000041272 1.000000000000 0.000000386730
vn 0.000000049151 1.000000000000 0.000000386322
vn 0.000000049151 1.000000000000 0.000000386322
vn 0.000000041272 1.000000000000 0.000000386730
vn -0.000000060429 1.000000000000 0.000000374460
vn -0.000000045331 1.000000000000 0.000000375816
vn 0.000000000000 -0.040459368378 0.999181210995
vn 0.000000000000 -0.040459197015 0.999181210995
vn 0.000000000000 -0.040459368378 0.999181210995
vn 0.000000000000 -0.040459372103 0.999181210995
vn 0.000000000000 -0.040459197015 0.999181210995
vn 0.000000000000 -0.040459368378 0.999181210995
vn 0.000000000000 -0.040459368378 0.999181210995
vn 0.000000000000 -0.040459368378 0.999181210995
# 108 vertex normals

g U_head_V2
f 1//1 2//2 4//3 3//4 
f 2//5 6//6 8//7 4//8 
f 4//9 8//10 7//11 3//12 
f 3//13 7//14 5//15 1//16 
f 9//17 10//18 12//19 11//20 
f 10//21 14//22 16//23 12//24 
f 12//25 16//26 15//27 11//28 
f 11//29 15//30 13//31 9//32 
f 30//33 28//34 29//35 58//36 
f 19//37 57//38 20//39 22//40 
f 23//41 21//42 22//43 20//44 
f 55//45 25//46 24//47 17//48 
f 21//49 23//50 28//51 27//52 
f 18//53 30//54 58//55 56//56 
f 30//57 18//58 17//59 24//60 
f 31//61 32//62 33//63 34//64 
f 32//65 36//66 35//67 33//68 
f 39//69 40//70 41//71 42//72 
f 37//73 42//74 41//75 38//76 
f 43//77 44//78 45//79 46//80 
f 46//81 48//82 47//83 43//84 
f 51//85 52//86 53//87 54//88 
f 50//89 52//90 51//91 49//92 
f 25//93 26//94 27//95 24//96 
f 24//97 27//98 28//99 30//100 
f 55//101 19//102 26//103 25//104 
f 57//105 56//106 58//107 29//108 
# 27 polygons

