# 3ds Max Wavefront OBJ Exporter v0.97b - (c)2007 guruware
# File Created: 07.08.2014 20:58:48

#
# object Sweety_Cheung
#

v  0.082154288888 0.078015111387 0.131071716547
v  0.082149714231 -0.356368064880 0.131071612239
v  0.121501043439 -0.356374055147 0.131071612239
v  0.121503844857 -0.123024605215 0.131071671844
v  0.143554866314 -0.090887352824 0.131071686745
v  0.157570227981 -0.090887352824 0.131071686745
v  0.183676421642 -0.123024605215 0.131071671844
v  0.183696225286 -0.356376707554 0.131071612239
v  0.289734095335 -0.356368064880 0.131071612239
v  0.289734035730 -0.245879471302 0.131071642041
v  0.267709910870 -0.223305359483 0.131071656942
v  0.267709910870 -0.123348839581 0.131071671844
v  0.229668274522 -0.090887352824 0.131071686745
v  0.229668214917 0.056922487915 0.131071716547
v  0.184285193682 0.056922487915 0.131071716547
v  0.112206272781 0.165001243353 0.131071716547
v  0.126889020205 0.165001243353 0.131071716547
v  0.000000214728 0.316809147596 0.131071761250
v  -0.126888602972 0.165001243353 0.131071716547
v  -0.112205848098 0.165001243353 0.131071716547
v  -0.184284776449 0.056922487915 0.131071716547
v  -0.229667797685 0.056922487915 0.131071716547
v  -0.229667842388 -0.090887352824 0.131071686745
v  -0.267709493637 -0.123348839581 0.131071671844
v  -0.267709493637 -0.223305359483 0.131071656942
v  -0.289733618498 -0.245879471302 0.131071642041
v  -0.289733678102 -0.356368064880 0.131071612239
v  -0.183695822954 -0.356376707554 0.131071612239
v  -0.183675944805 -0.123024605215 0.131071671844
v  -0.157569780946 -0.090887352824 0.131071686745
v  -0.143554449081 -0.090887352824 0.131071686745
v  -0.121503405273 -0.123024605215 0.131071671844
v  -0.121500618756 -0.356374055147 0.131071612239
v  -0.082149289548 -0.356368064880 0.131071612239
v  -0.082153871655 0.078015111387 0.131071716547
v  -0.037438225001 0.165001243353 0.131071716547
v  0.000000214728 0.186407729983 0.131071716547
v  0.037438657135 0.165001243353 0.131071716547
v  -0.120695263147 0.282928198576 -0.131071671844
v  -0.120688512921 -0.355239719152 -0.131071716547
v  -0.178500950336 -0.355248540640 -0.131071716547
v  -0.178505063057 -0.012426544912 -0.131071701646
v  -0.210900992155 0.034787498415 -0.131071701646
v  -0.231491431594 0.034787498415 -0.131071701646
v  -0.269844949245 -0.012426544912 -0.131071716547
v  -0.269874066114 -0.355252474546 -0.131071716547
v  -0.425658047199 -0.355239719152 -0.131071746349
v  -0.425658047199 -0.192916959524 -0.131071761250
v  -0.393301576376 -0.159752517939 -0.131071716547
v  -0.393301576376 -0.012902872637 -0.131071716547
v  -0.337413221598 0.034787498415 -0.131071701646
v  -0.337413221598 0.251940220594 -0.131071716547
v  -0.270739436150 0.251940220594 -0.131071671844
v  -0.164845705032 0.410722434521 -0.131071656942
v  -0.186416581273 0.410722434521 -0.131071656942
v  0.000000225330 0.633749008179 -0.131071612239
v  0.186417102814 0.410722434521 -0.131071627140
v  0.164846196771 0.410722434521 -0.131071627140
v  0.270739912987 0.251940160990 -0.131071612239
v  0.337413698435 0.251940160990 -0.131071612239
v  0.337413698435 0.034787498415 -0.131071642041
v  0.393302083015 -0.012902872637 -0.131071671844
v  0.393302053213 -0.159752532840 -0.131071612239
v  0.425658524036 -0.192916974425 -0.131071656942
v  0.425658524036 -0.355239719152 -0.131071642041
v  0.269874602556 -0.355252474546 -0.131071642041
v  0.269845426083 -0.012426544912 -0.131071671844
v  0.231491908431 0.034787498415 -0.131071642041
v  0.210901513696 0.034787498415 -0.131071642041
v  0.178505524993 -0.012426544912 -0.131071671844
v  0.178501442075 -0.355248540640 -0.131071701646
v  0.120688997209 -0.355239719152 -0.131071701646
v  0.120695739985 0.282928138971 -0.131071642041
v  0.055002368987 0.410722434521 -0.131071656942
v  0.000000225330 0.442171514034 -0.131071656942
v  -0.055001903325 0.410722434521 -0.131071656942
# 76 vertices

vn 0.989365279675 0.000010474679 -0.145452335477
vn 0.989365279675 0.000010474679 -0.145452335477
vn 0.989365279675 0.000010474679 -0.145452335477
vn 0.989365279675 0.000010474679 -0.145452335477
vn -0.977166533470 -0.000011728232 0.212474614382
vn -0.977166533470 -0.000011728232 0.212474614382
vn -0.977166533470 -0.000011728232 0.212474614382
vn -0.977166533470 -0.000011728232 0.212474614382
vn -0.823109865189 -0.564777731895 -0.059298548847
vn -0.823109865189 -0.564777731895 -0.059298548847
vn -0.823109865189 -0.564777731895 -0.059298548847
vn -0.823109865189 -0.564777731895 -0.059298548847
vn 0.000000000000 -0.901729524136 -0.432300567627
vn 0.000000000000 -0.901729524136 -0.432300567627
vn 0.000000000000 -0.901729524136 -0.432300567627
vn 0.000000000000 -0.901729524136 -0.432300567627
vn 0.688313305378 -0.559139490128 -0.462155550718
vn 0.688313305378 -0.559139490128 -0.462155550718
vn 0.688313305378 -0.559139490128 -0.462155550718
vn 0.688313305378 -0.559139490128 -0.462155550718
vn 0.949982762337 -0.000080744190 -0.312302291393
vn 0.949982762337 -0.000080744190 -0.312302291393
vn 0.949982762337 -0.000080744190 -0.312302291393
vn 0.949982762337 -0.000080744190 -0.312302291393
vn -0.887757062912 0.000000161853 0.460312336683
vn -0.887757062912 0.000000161853 0.460312336683
vn -0.887757062912 0.000000161853 0.460312336683
vn -0.887757062912 0.000000161853 0.460312336683
vn -0.637060761452 0.621539592743 0.455897033215
vn -0.637060761452 0.621539592743 0.455897033215
vn -0.637060761452 0.621539592743 0.455897033215
vn -0.637060761452 0.621539592743 0.455897033215
vn -0.901840567589 -0.000000025964 0.432068973780
vn -0.901840567589 -0.000000025964 0.432068973780
vn -0.901840567589 -0.000000025964 0.432068973780
vn -0.901840567589 -0.000000025964 0.432068973780
vn -0.548840463161 0.643186151981 0.533934295177
vn -0.548840463161 0.643186151981 0.533934295177
vn -0.548840463161 0.643186151981 0.533934295177
vn -0.548840463161 0.643186151981 0.533934295177
vn -0.924921274185 0.000000099040 0.380158454180
vn -0.924921274185 0.000000099040 0.380158454180
vn -0.924921274185 0.000000099040 0.380158454180
vn -0.924921274185 0.000000099040 0.380158454180
vn -0.000000203501 0.802329540253 0.596881270409
vn -0.000000203501 0.802329540253 0.596881270409
vn -0.000000203501 0.802329540253 0.596881270409
vn -0.000000203501 0.802329540253 0.596881270409
vn -0.685680687428 0.457288324833 0.566329717636
vn -0.685680687428 0.457288324833 0.566329717636
vn -0.685680687428 0.457288324833 0.566329717636
vn -0.685680687428 0.457288324833 0.566329717636
vn -0.606350541115 0.506818294525 0.612759590149
vn -0.606350541115 0.506818294525 0.612759590149
vn -0.606350541115 0.506818294525 0.612759590149
vn -0.606350541115 0.506818294525 0.612759590149
vn 0.606350302696 0.506818294525 0.612759709358
vn 0.606350302696 0.506818294525 0.612759709358
vn 0.606350302696 0.506818294525 0.612759709358
vn 0.606350302696 0.506818294525 0.612759709358
vn 0.685680687428 0.457288205624 0.566329836845
vn 0.685680687428 0.457288205624 0.566329836845
vn 0.685680687428 0.457288205624 0.566329836845
vn 0.685680687428 0.457288205624 0.566329836845
vn 0.000000000000 0.802329480648 0.596881270409
vn 0.000000000000 0.802329480648 0.596881270409
vn 0.000000000000 0.802329480648 0.596881270409
vn 0.000000000000 0.802329480648 0.596881270409
vn 0.924921274185 0.000000090036 0.380158722401
vn 0.924921274185 0.000000090036 0.380158722401
vn 0.924921274185 0.000000090036 0.380158722401
vn 0.924921274185 0.000000090036 0.380158722401
vn 0.548840343952 0.643186151981 0.533934414387
vn 0.548840343952 0.643186151981 0.533934414387
vn 0.548840343952 0.643186151981 0.533934414387
vn 0.548840343952 0.643186151981 0.533934414387
vn 0.901840448380 0.000000000000 0.432069331408
vn 0.901840448380 0.000000000000 0.432069331408
vn 0.901840448380 0.000000000000 0.432069331408
vn 0.901840448380 0.000000000000 0.432069331408
vn 0.637060701847 0.621539533138 0.455897331238
vn 0.637060701847 0.621539533138 0.455897331238
vn 0.637060701847 0.621539533138 0.455897331238
vn 0.637060701847 0.621539533138 0.455897331238
vn 0.887756884098 0.000000173414 0.460312634706
vn 0.887756884098 0.000000173414 0.460312634706
vn 0.887756884098 0.000000173414 0.460312634706
vn 0.887756884098 0.000000173414 0.460312634706
vn -0.949982643127 -0.000080738348 -0.312302559614
vn -0.949982643127 -0.000080738348 -0.312302559614
vn -0.949982643127 -0.000080738348 -0.312302559614
vn -0.949982643127 -0.000080738348 -0.312302559614
vn -0.688313245773 -0.559139609337 -0.462155699730
vn -0.688313245773 -0.559139609337 -0.462155699730
vn -0.688313245773 -0.559139609337 -0.462155699730
vn -0.688313245773 -0.559139609337 -0.462155699730
vn 0.000000000000 -0.901729583740 -0.432300657034
vn 0.000000000000 -0.901729583740 -0.432300657034
vn 0.000000000000 -0.901729583740 -0.432300657034
vn 0.000000000000 -0.901729583740 -0.432300657034
vn 0.823109686375 -0.564777970314 -0.059298504144
vn 0.823109686375 -0.564777970314 -0.059298504144
vn 0.823109686375 -0.564777970314 -0.059298504144
vn 0.823109686375 -0.564777970314 -0.059298504144
vn 0.977166533470 -0.000011710156 0.212474808097
vn 0.977166533470 -0.000011710156 0.212474808097
vn 0.977166533470 -0.000011710156 0.212474808097
vn 0.977166533470 -0.000011710156 0.212474808097
vn -0.989365160465 0.000010461569 -0.145452558994
vn -0.989365160465 0.000010461569 -0.145452558994
vn -0.989365160465 0.000010461569 -0.145452558994
vn -0.989365160465 0.000010461569 -0.145452558994
vn -0.799235165119 -0.410851091146 -0.438662201166
vn -0.799235165119 -0.410851091146 -0.438662201166
vn -0.799235165119 -0.410851091146 -0.438662201166
vn -0.799235165119 -0.410851091146 -0.438662201166
vn -0.378765314817 -0.662433147430 -0.646311938763
vn -0.378765314817 -0.662433147430 -0.646311938763
vn -0.378765314817 -0.662433147430 -0.646311938763
vn -0.378765314817 -0.662433147430 -0.646311938763
vn 0.378765374422 -0.662433087826 -0.646311938763
vn 0.378765374422 -0.662433087826 -0.646311938763
vn 0.378765374422 -0.662433087826 -0.646311938763
vn 0.378765374422 -0.662433087826 -0.646311938763
vn 0.799235284328 -0.410851120949 -0.438662141562
vn 0.799235284328 -0.410851120949 -0.438662141562
vn 0.799235284328 -0.410851120949 -0.438662141562
vn 0.799235284328 -0.410851120949 -0.438662141562
# 128 vertex normals

g Sweety_Cheung
f 34//1 40//2 39//3 35//4 
f 33//5 32//6 42//7 41//8 
f 32//9 31//10 43//11 42//12 
f 31//13 30//14 44//15 43//16 
f 30//17 29//18 45//19 44//20 
f 28//21 46//22 45//23 29//24 
f 27//25 26//26 48//27 47//28 
f 26//29 25//30 49//31 48//32 
f 25//33 24//34 50//35 49//36 
f 24//37 23//38 51//39 50//40 
f 23//41 22//42 52//43 51//44 
f 22//45 21//46 53//47 52//48 
f 21//49 20//50 54//51 53//52 
f 19//53 18//54 56//55 55//56 
f 18//57 17//58 57//59 56//60 
f 16//61 15//62 59//63 58//64 
f 15//65 14//66 60//67 59//68 
f 14//69 13//70 61//71 60//72 
f 13//73 12//74 62//75 61//76 
f 12//77 11//78 63//79 62//80 
f 11//81 10//82 64//83 63//84 
f 10//85 9//86 65//87 64//88 
f 7//89 67//90 66//91 8//92 
f 7//93 6//94 68//95 67//96 
f 6//97 5//98 69//99 68//100 
f 5//101 4//102 70//103 69//104 
f 4//105 3//106 71//107 70//108 
f 1//109 73//110 72//111 2//112 
f 1//113 38//114 74//115 73//116 
f 38//117 37//118 75//119 74//120 
f 37//121 36//122 76//123 75//124 
f 36//125 35//126 39//127 76//128 
# 32 polygons

