# 3ds Max Wavefront OBJ Exporter v0.97b - (c)2007 guruware
# File Created: 09.08.2014 14:29:09

#
# object Box001
#

v  0.101410388947 0.121261775494 -0.408861935139
v  0.171875834465 -0.134054094553 -0.136287316680
v  0.171875804663 -0.134054094553 0.136287331581
v  0.101410321891 0.121261775494 0.408862024546
v  0.101410366595 0.155208349228 -0.408861935139
v  0.158517763019 0.066012062132 -0.136287316680
v  0.158517718315 0.066012062132 0.136287331581
v  0.101410306990 0.155208349228 0.408862024546
v  0.101410366595 0.253430694342 -0.408861935139
v  0.158517748117 0.143442824483 -0.136287316680
v  0.158517703414 0.143442809582 0.136287331581
v  0.101410277188 0.253430694342 0.408862024546
v  -0.114768333733 0.121261738241 -0.408862113953
v  -0.146862447262 -0.137371346354 -0.136287361383
v  -0.146862491965 -0.137371346354 0.136287286878
v  -0.114768430591 0.121261738241 0.408861815929
v  -0.114768356085 0.155208319426 -0.408862054348
v  -0.171875745058 0.066012009978 -0.136287376285
v  -0.171875789762 0.066012009978 0.136287286878
v  -0.114768400788 0.155208304524 0.408861875534
v  -0.114768356085 0.253430664539 -0.408862054348
v  -0.171875789762 0.143442779779 -0.136287346482
v  -0.171875789762 0.143442749977 0.136287301779
v  -0.114768452942 0.253430664539 0.408861875534
v  -0.006678956561 -0.218937203288 -0.090772584081
v  -0.006678965408 0.121261775494 -0.486373424530
v  -0.006678985897 -0.218937203288 0.090772576630
v  -0.006679059472 0.121261753142 0.486373335123
v  -0.006679059472 0.155208319426 0.486373335123
v  -0.006679082755 0.253430694342 0.486373364925
v  -0.006678989157 0.253430694342 -0.486373364925
v  -0.006678977050 0.155208334327 -0.486373424530
v  0.158517733216 0.066012062132 0.000000014107
v  0.171875819564 -0.168547615409 0.000000013782
v  0.158517733216 0.143442809582 0.000000014107
v  -0.146862477064 -0.171864897013 -0.000000040191
v  -0.171875759959 0.066012009978 -0.000000039721
v  -0.171875804663 0.143442779779 -0.000000016272
v  -0.006678977050 -0.253430724144 -0.000000016842
# 39 vertices

vn 0.979254543781 0.015362202190 -0.202050745487
vn 0.978749632835 0.000000274693 -0.205058768392
vn 0.994600057602 0.033670198172 -0.098168708384
vn 0.996617376804 0.066542416811 -0.048228215426
vn 0.994600057602 0.033670198172 -0.098168708384
vn 0.999595522881 0.028440287337 0.000000163938
vn 0.998029708862 0.062742672861 0.000000125278
vn 0.996617376804 0.066542416811 -0.048228215426
vn 0.996759653091 0.065017163754 0.047359801829
vn 0.994815766811 0.034882187843 0.095523782074
vn 0.976997792721 0.010224675760 0.213004022837
vn 0.968171060085 0.000000424988 0.250289320946
vn 0.978749632835 0.000000274693 -0.205058768392
vn 0.978749632835 0.000000000000 -0.205058813095
vn 0.993470072746 0.000000144799 -0.114093162119
vn 0.994600057602 0.033670198172 -0.098168708384
vn 0.993470072746 0.000000144799 -0.114093162119
vn 1.000000000000 0.000000000000 0.000000164005
vn 0.999595522881 0.028440287337 0.000000163938
vn 0.994600057602 0.033670198172 -0.098168708384
vn 0.994815766811 0.034882187843 0.095523782074
vn 0.993470013142 0.000000162773 0.114093333483
vn 0.978749632835 0.000000277311 0.205058798194
vn 0.976997792721 0.010224675760 0.213004022837
vn -0.977152049541 -0.028856821358 -0.210573285818
vn -0.988223195076 -0.121537595987 -0.092970363796
vn -0.991878986359 -0.061223670840 -0.111479796469
vn -0.978749632835 -0.000000155570 -0.205058902502
vn -0.993934869766 -0.109903849661 0.003825727152
vn -0.998477101326 -0.055111702532 0.002476067515
vn -0.991878986359 -0.061223670840 -0.111479796469
vn -0.988223195076 -0.121537595987 -0.092970363796
vn -0.990152955055 -0.110661156476 0.085739642382
vn -0.993139505386 0.000000666576 0.116935744882
vn -0.981571018696 -0.019340539351 0.190116360784
vn -0.991315007210 -0.066309526563 0.113567836583
vn -0.978749632835 -0.000000155570 -0.205058902502
vn -0.991878986359 -0.061223670840 -0.111479796469
vn -0.993470013142 -0.000000483261 -0.114093363285
vn -0.978749632835 0.000000000000 -0.205058917403
vn -0.998477101326 -0.055111702532 0.002476067515
vn -1.000000000000 -0.000000482386 -0.000000110060
vn -0.993470013142 -0.000000483261 -0.114093363285
vn -0.991878986359 -0.061223670840 -0.111479796469
vn -0.991315007210 -0.066309526563 0.113567836583
vn -0.981571018696 -0.019340539351 0.190116360784
vn -0.978749632835 -0.000000432779 0.205058962107
vn -0.993470072746 -0.000000021957 0.114093236625
vn 0.394540011883 -0.882475554943 -0.256076246500
vn 0.429343938828 -0.903141081333 0.000000082066
vn -0.037025198340 -0.999314308167 -0.000000060978
vn -0.039518885314 -0.934053540230 -0.354939788580
vn 0.582753658295 0.000000195964 0.812648832798
vn -0.000000431916 -0.000000106796 1.000000000000
vn -0.000000729588 -0.000000064547 1.000000000000
vn 0.582753658295 0.000000255805 0.812648892403
vn 0.582753777504 0.000000061308 0.812648773193
vn -0.000000420243 -0.000000303417 1.000000000000
vn -0.000000431916 -0.000000106796 1.000000000000
vn 0.582753658295 0.000000195964 0.812648832798
vn 0.582754552364 0.000000306244 -0.812648236752
vn 0.000000408569 0.000000373248 -1.000000000000
vn 0.000000420242 0.000000361103 -1.000000000000
vn 0.582754254341 0.000000000000 -0.812648415565
vn 0.582754611969 0.000000354459 -0.812648177147
vn 0.000000583670 0.000000000000 -1.000000000000
vn 0.000000408569 0.000000373248 -1.000000000000
vn 0.582754552364 0.000000306244 -0.812648236752
vn -0.459780395031 -0.851475417614 0.252173721790
vn -0.502914369106 -0.864336252213 -0.000000090018
vn -0.037025198340 -0.999314308167 -0.000000060978
vn -0.039518974721 -0.934053599834 0.354939669371
vn -0.582754552364 -0.000000539548 0.812648177147
vn -0.582754671574 -0.000000915267 0.812648117542
vn -0.000000729588 -0.000000064547 1.000000000000
vn -0.000000431916 -0.000000106796 1.000000000000
vn -0.582754552364 -0.000000339914 0.812648236752
vn -0.582754552364 -0.000000539548 0.812648177147
vn -0.000000431916 -0.000000106796 1.000000000000
vn -0.000000420243 -0.000000303417 1.000000000000
vn -0.582753837109 0.000000606888 -0.812648713589
vn -0.582753717899 0.000000000000 -0.812648832798
vn 0.000000420242 0.000000361103 -1.000000000000
vn 0.000000408569 0.000000373248 -1.000000000000
vn -0.582753837109 0.000000845428 -0.812648713589
vn -0.582753837109 0.000000606888 -0.812648713589
vn 0.000000408569 0.000000373248 -1.000000000000
vn 0.000000583670 0.000000000000 -1.000000000000
vn 0.994815766811 0.034882187843 0.095523782074
vn 0.996759653091 0.065017163754 0.047359801829
vn 0.998029708862 0.062742672861 0.000000125278
vn 0.999595522881 0.028440287337 0.000000163938
vn 0.993470013142 0.000000162773 0.114093333483
vn 0.994815766811 0.034882187843 0.095523782074
vn 0.999595522881 0.028440287337 0.000000163938
vn 1.000000000000 0.000000000000 0.000000164005
vn -0.990152955055 -0.110661156476 0.085739642382
vn -0.991315007210 -0.066309526563 0.113567836583
vn -0.998477101326 -0.055111702532 0.002476067515
vn -0.993934869766 -0.109903849661 0.003825727152
vn -0.991315007210 -0.066309526563 0.113567836583
vn -0.993470072746 -0.000000021957 0.114093236625
vn -1.000000000000 -0.000000482386 -0.000000110060
vn -0.998477101326 -0.055111702532 0.002476067515
vn 0.394539952278 -0.882475554943 0.256076365709
vn -0.039518974721 -0.934053599834 0.354939669371
vn -0.037025198340 -0.999314308167 -0.000000060978
vn 0.429343938828 -0.903141081333 0.000000082066
vn -0.459780305624 -0.851475417614 -0.252173900604
vn -0.039518885314 -0.934053540230 -0.354939788580
vn -0.037025198340 -0.999314308167 -0.000000060978
vn -0.502914369106 -0.864336252213 -0.000000090018
# 112 vertex normals

g Box001
f 1//1 5//2 6//3 2//4 
f 6//5 33//6 34//7 2//8 
f 3//9 7//10 8//11 4//12 
f 5//13 9//14 10//15 6//16 
f 10//17 35//18 33//19 6//20 
f 7//21 11//22 12//23 8//24 
f 13//25 14//26 18//27 17//28 
f 36//29 37//30 18//31 14//32 
f 15//33 16//34 20//35 19//36 
f 17//37 18//38 22//39 21//40 
f 37//41 38//42 22//43 18//44 
f 19//45 20//46 24//47 23//48 
f 2//49 34//50 39//51 25//52 
f 8//53 29//54 28//55 4//56 
f 12//57 30//58 29//59 8//60 
f 5//61 32//62 31//63 9//64 
f 1//65 26//66 32//67 5//68 
f 15//69 36//70 39//71 27//72 
f 20//73 16//74 28//75 29//76 
f 24//77 20//78 29//79 30//80 
f 17//81 21//82 31//83 32//84 
f 13//85 17//86 32//87 26//88 
f 7//89 3//90 34//91 33//92 
f 11//93 7//94 33//95 35//96 
f 15//97 19//98 37//99 36//100 
f 19//101 23//102 38//103 37//104 
f 3//105 27//106 39//107 34//108 
f 14//109 25//110 39//111 36//112 
# 28 polygons

